HIERARCHY
ROOT Hips
{
  OFFSET 0.0 0.0 0.0
  CHANNELS 6 XPOSITION YPOSITION ZPOSITION ZROTATION XROTATION YROTATION 
  JOINT RightUpLeg
  {
    OFFSET -0.089458 -0.0866707 0.00101652
    CHANNELS 3 ZROTATION XROTATION YROTATION 
    JOINT RightLeg
    {
      OFFSET 0.0 -0.444227 0.013727
      CHANNELS 3 ZROTATION XROTATION YROTATION 
      JOINT RightFoot
      {
        OFFSET 0.00253549 -0.420924 -0.0146059
        CHANNELS 3 ZROTATION XROTATION YROTATION 
        End Site
        {
          OFFSET 0.0004 -0.0441509 0.084991
        }
      }
    }
  }
  JOINT Spine
  {
    OFFSET 0.0 0.118905 0.0
    CHANNELS 3 ZROTATION XROTATION YROTATION 
    JOINT Spine1
    {
      OFFSET 0.0 0.256574 0.00127663
      CHANNELS 3 ZROTATION XROTATION YROTATION 
      End Site
      {
        OFFSET -0.0029 0.2150836 0.02525291
      }
      JOINT RightArm
      {
        OFFSET -0.162727 -0.05365632 0.00102123
        CHANNELS 3 ZROTATION XROTATION YROTATION 
        JOINT RightForeArm
        {
          OFFSET -0.26364 0.00099144 -0.0142434
          CHANNELS 3 ZROTATION XROTATION YROTATION 
          End Site
          {
            OFFSET -0.220324 0.00085362 0.0102216
          }
        }
      }
      JOINT LeftArm
      {
        OFFSET 0.162727 -0.0536563199 0.00102123
        CHANNELS 3 ZROTATION XROTATION YROTATION 
        JOINT LeftForeArm
        {
          OFFSET 0.262597 0.00099144 -0.0142434
          CHANNELS 3 ZROTATION XROTATION YROTATION 
          End Site
          {
            OFFSET 0.220902 0.00085362 0.0102216
          }
        }
      }
    }
  }
  JOINT LeftUpLeg
  {
    OFFSET 0.089458 -0.0866707 0.00101652
    CHANNELS 3 ZROTATION XROTATION YROTATION 
    JOINT LeftLeg
    {
      OFFSET 0.0 -0.444227 0.013727
      CHANNELS 3 ZROTATION XROTATION YROTATION 
      JOINT LeftFoot
      {
        OFFSET -0.00253549 -0.420924 -0.0146059
        CHANNELS 3 ZROTATION XROTATION YROTATION 
        End Site
        {
          OFFSET -0.0004 -0.0441509 0.084991
        }
      }
    }
  }
}
MOTION
Frames: 16
Frame Time: 0.033333
1.69259825735 0.986554454029 0.0386514002033 -3.20415934697 -0.127908338937 -94.2643559807 -2.71013005676 1.14006006482 -7.61076965534 -1.62774997899 8.99677981625 -10.3162997931 9.83629202752 -35.7896038546 17.2435980315 0.99515098483 -11.2678996776 0.0964995939768 0.314436029374 26.3802993955 -0.198593979998 79.6528191572 -23.5987560824 12.1846502293 7.25437038445 30.4231003181 7.810739665 -84.8145775281 -13.6002137649 -15.8398797513 -13.6968003238 16.8595996737 -8.48509021817 1.62015000615 0.0985828683747 6.55610008192 1.10389997613 9.14250958616 20.6549001539 0.458229440649 -34.2446458002 17.5738171873 
1.69190734606 0.98279343029 0.0385100706302 -3.17098127619 -0.185236304436 -94.3408267786 -2.71156610403 1.14245319235 -7.61354783479 -1.6247837559 8.99504324066 -10.310582071 9.83092008374 -35.7877255526 17.2434614277 1.01320733695 -11.2559989267 0.104203453721 0.281106280369 26.3663333662 -0.179668606365 79.6595332332 -23.5892501666 12.1651022279 7.25116019554 30.4127559966 7.82316292532 -84.7913958661 -13.5804890324 -15.8471965915 -13.7014994939 16.8538554846 -8.48115773675 1.6206733694 0.101433398466 6.5586861623 1.10248324549 9.14183852007 20.6552758143 0.461037128646 -34.2450078002 17.5736225269 
1.69063955511 0.982524812185 0.0383140731912 -3.09441165395 -0.264813157589 -94.4353087854 -2.72439725472 1.14103603482 -7.62806198678 -1.61063427198 8.99263559898 -10.294370617 9.80966795013 -35.7796010426 17.2426366823 1.06909525311 -11.209513513 0.117489378946 0.177547885988 26.3025035408 -0.131892913884 79.6733575361 -23.540463833 12.0943252464 7.23366039712 30.3992902786 7.87964175957 -84.6640606494 -13.3675672765 -15.837176704 -13.7204327783 16.6812531892 -8.53035985821 1.61361223446 0.100831081169 6.55676773291 1.10274908926 9.13844135473 20.6619711073 0.472839642171 -34.243013385 17.5728592532 
1.6888927411 0.982630927958 0.0380887492897 -2.97653859713 -0.342447702377 -94.4839943738 -2.75305117895 1.12784405804 -7.65372129994 -1.59036696628 8.99558026428 -10.2829291964 9.78654263715 -35.7693728343 17.2412296634 1.12311169744 -11.1416811968 0.11034596157 0.0772858182743 26.1994701372 -0.105961000133 79.6637679505 -23.4137433333 11.9806068656 7.20611680551 30.3208626315 8.00954256607 -84.4485818414 -12.9187376169 -15.7744397089 -13.7516706485 16.2773601979 -8.66299017906 1.58562873598 0.0858284172445 6.53047022395 1.11683187211 9.13314198171 20.6835596277 0.489422967949 -34.2349879127 17.5713224607 
1.68659989102 0.982606129994 0.0378135356568 -2.81998938069 -0.429789840286 -94.5132002627 -2.78532424966 1.11200474264 -7.67762610826 -1.57900025084 8.99993792497 -10.2860087579 9.78937716566 -35.7646429283 17.2402153803 1.14757700816 -11.0918344762 0.0839829588277 0.0357696206421 26.1136624707 -0.118849400344 79.6275542875 -23.2219669893 11.8592113521 7.18515153986 30.0726364816 8.2044368914 -84.2879767733 -12.5625654498 -15.7058509493 -13.7859231934 15.9631510055 -8.75262104399 1.54410769585 0.0633888779332 6.48589683631 1.141102309 9.12930768427 20.7114182618 0.501886408998 -34.2260608555 17.5694561115 
1.6837603525 0.982511661827 0.0375565502714 -2.63702675552 -0.50722142707 -94.5410674345 -2.80987194954 1.10170439048 -7.69282242539 -1.57743144176 8.99188940081 -10.2906635319 9.74175964808 -35.4567960571 17.2012662265 1.17437013273 -11.0813040321 0.07174606795 -0.000702918137872 26.0712828544 -0.11951356954 79.6207172681 -23.0744639315 11.769656473 7.16592541112 29.7600494591 8.38969211226 -84.244133789 -12.5214460035 -15.6953000145 -13.8149139313 15.9789270349 -8.70747093226 1.5146478093 0.0441861079066 6.45994681322 1.14751617679 9.12502088679 20.7235367249 0.692710688629 -33.9751982525 17.5591869221 
1.6806129837 0.98244804264 0.0374275207295 -2.41818365253 -0.558205053965 -94.5588054358 -2.82344951183 1.09020117798 -7.6985563692 -1.58129316669 8.96754489906 -10.2929345698 9.62192654042 -34.9952391937 17.1414832883 1.21181899273 -11.1151851854 0.0839035512085 -0.0470020668354 26.0694643166 -0.0931980379465 79.6666844412 -23.0578255907 11.7409688248 7.13358233096 29.5997449193 8.49297567156 -84.2587640542 -12.6238373693 -15.718894903 -13.8330216166 16.148049349 -8.61093986872 1.50975419221 0.0248755873103 6.46973191298 1.12259164257 9.11550301818 20.7137644317 0.951000428591 -33.5891969418 17.5413908642 
1.67736486715 0.982486949263 0.0374671787329 -2.1778158487 -0.581544450689 -94.5539286807 -2.82463903197 1.06958105032 -7.69334237354 -1.58850040364 8.93930206684 -10.3011717779 9.48827510629 -34.7330726277 17.1027287949 1.24074655142 -11.1791925957 0.103148369587 -0.0649550789965 26.0911194313 -0.0705213763452 79.7111694633 -23.1058810942 11.7510809198 7.09767175763 29.5918048244 8.53272737253 -84.2752589611 -12.6577885321 -15.7257626582 -13.8489436413 16.2312922795 -8.55159320879 1.520094565 -0.00265095674957 6.49474534638 1.08849779283 9.10643252696 20.6975085815 1.05972135209 -33.3461651507 17.526130514 
1.67415252025 0.982528587007 0.0377496939594 -1.9542900107 -0.572246962403 -94.524258339 -2.81350710428 1.04977414206 -7.67976737257 -1.59660175505 8.9151872302 -10.3201503123 9.35424288911 -34.5833992774 17.075235576 1.27282111976 -11.2380944396 0.119774744234 -0.0725637096287 26.1105222912 -0.0555087572867 79.7153290485 -23.1156687553 11.7582389581 7.08703331111 29.5651056149 8.55334515232 -84.3110628127 -12.6907672468 -15.7310184888 -13.8758656857 16.2822352454 -8.48864533163 1.5341505607 -0.0343297614032 6.51243297501 1.07023749553 9.11125805561 20.6853337693 1.08458804314 -33.1870832148 17.5130165508 
1.67104112614 0.982532219513 0.038345835151 -1.77672355514 -0.53421748296 -94.4728201844 -2.79980297004 1.05908070169 -7.6724932211 -1.60014171403 8.89155648322 -10.3466283944 9.22193102583 -34.5419400291 17.0568709048 1.34292938305 -11.2511076575 0.139294144222 -0.146990606818 26.1036067247 -0.0156734765463 79.7225144075 -23.1069739244 11.7591789629 7.10905768297 29.4815006844 8.53771938704 -84.3571529292 -12.7757194321 -15.7524789432 -13.9039872821 16.3733755821 -8.40746426448 1.54731991248 -0.0506379486193 6.52297281067 1.06638366801 9.13499381675 20.6602601449 1.02513060609 -33.0995748311 17.5008827197 
1.66803536968 0.98254642507 0.0392067340753 -1.65306233989 -0.483691318658 -94.3828256118 -2.79621029054 1.1164797972 -7.68497112294 -1.5964672857 8.86694048145 -10.3850097886 9.08993249748 -34.5688134084 17.0433727435 1.44316422339 -11.2099583291 0.159639223366 -0.299140167573 26.0744691377 0.053315946398 79.7759742982 -23.1426360497 11.7733814875 7.14065541874 29.4384329266 8.46750931124 -84.3476316455 -12.7629418557 -15.7554090943 -13.9135401554 16.3839111489 -8.38809470176 1.55601954577 -0.0363579674009 6.53320827603 1.06353302453 9.16926343714 20.592853008 0.921899660581 -33.0521938089 17.489102351 
1.66513203867 0.982564762078 0.0401394422644 -1.56321354923 -0.433493883889 -94.2556816404 -2.80260868369 1.19930448535 -7.71165667203 -1.5858387643 8.85255012665 -10.4440892174 8.99131737247 -34.6329522998 17.0354565542 1.52331852101 -11.1581206083 0.169658443868 -0.444315651619 26.0578632403 0.113283583243 79.8402668688 -23.1891137794 11.7933606446 7.1619442646 29.4421075683 8.3977218534 -84.3310342858 -12.7694877383 -15.7687586991 -13.922065939 16.4404651153 -8.35378153892 1.56062245294 -0.00410572909623 6.54313851731 1.05678735895 9.20442695853 20.4812238113 0.830587608619 -33.0463813179 17.4813620391 
1.66238308904 0.982544371963 0.0409915948982 -1.47121751786 -0.386542736648 -94.1250474424 -2.81164651806 1.26147244029 -7.73889632021 -1.56816938508 8.86414608031 -10.5122203544 8.94735656742 -34.7211607778 17.034744507 1.55854799642 -11.1394810221 0.167996320001 -0.521035911553 26.0706527695 0.140072118776 79.8638241913 -23.183736713 11.7938899842 7.17301343993 29.4159240381 8.38481279587 -84.5145956198 -13.3479415817 -15.9290222578 -13.9747087683 17.0870210674 -8.01684830716 1.56683771164 0.0204178883609 6.55259491422 1.04752700982 9.23525416358 20.3640314255 0.766994812186 -33.0865872264 17.4798713503 
1.65984160863 0.982475877279 0.04172797033 -1.37284048897 -0.344687817662 -94.025019322 -2.8231558137 1.28883407138 -7.7616878077 -1.54817283235 8.91189166393 -10.5647658534 8.94879432224 -34.8385307485 17.0411631773 1.57535410376 -11.1407719279 0.165179053732 -0.567783487141 26.0887100821 0.15319720772 79.8627518516 -23.1595356452 11.7741584215 7.17485844478 29.3718966388 8.40393817932 -84.9780376153 -14.6659051293 -16.2781490847 -14.080895158 18.4804752807 -7.31001252053 1.57207881461 0.0349822212267 6.55975252558 1.04233072997 9.26172370793 20.2795727213 0.703664124263 -33.1606913638 17.4824907279 
1.65749373005 0.982358179762 0.0423208383821 -1.27540645308 -0.311831379422 -93.9599412796 -2.83329032032 1.29555508424 -7.76958009128 -1.53824931454 9.00048860897 -10.6061670451 8.98129663118 -34.976005381 17.0533567725 1.60734019981 -11.1259572475 0.169783281583 -0.64596177902 26.0880595066 0.179162305252 79.8806469472 -23.1884119775 11.7559073022 7.16133509711 29.3834259981 8.40472791994 -85.4525786683 -15.9527298444 -16.6119523823 -14.1828929342 19.8325009816 -6.63981173416 1.56872529845 0.0447723735922 6.55687317396 1.05390053681 9.30271081937 20.2238349626 0.635033316266 -33.2502180684 17.4871318414 
1.65532706237 0.982185411396 0.0426671275424 -1.15821065221 -0.286411042838 -93.9120411629 -2.82289541274 1.26589242645 -7.73982693349 -1.55303560687 9.121372712 -10.6664374881 9.04492496594 -35.1044436733 17.070399802 1.65693889913 -11.1058918593 0.185909638358 -0.749260386089 26.0667424862 0.220222681139 79.9143402704 -23.2582284636 11.7442259712 7.13428285224 29.4441463798 8.39292364551 -85.6041952075 -16.3906832815 -16.6929293975 -14.2159664177 20.3063777987 -6.41705578655 1.56928836217 0.0178305690141 6.54823768041 1.08020711712 9.38675032069 20.1728288174 0.592263685539 -33.3555464156 17.4960213326 
